<svg xmlns="http://www.w3.org/2000/svg" xmlns:xlink="http://www.w3.org/1999/xlink" width="1175" zoomAndPan="magnify" viewBox="0 0 881.25 453.749987" height="605" preserveAspectRatio="xMidYMid meet" version="1.0"><defs><g/></defs><path fill="#f0c398" d="M 2.898438 236.847656 C 0.921875 237.179688 1.582031 242.453125 2.570312 243.109375 C 8.832031 247.230469 8.832031 243.277344 25.636719 248.21875 C 34.863281 251.019531 31.40625 247.726562 42.445312 250.527344 C 46.398438 259.09375 51.507812 254.480469 59.582031 262.058594 C 63.535156 265.851562 73.09375 261.894531 77.707031 262.882812 C 84.792969 259.257812 87.429688 267.167969 91.546875 262.554688 C 92.207031 261.730469 93.359375 261.894531 94.347656 262.390625 C 102.585938 267.828125 106.210938 260.578125 119.558594 264.367188 C 123.183594 265.355469 126.644531 263.542969 130.105469 264.695312 C 132.90625 265.683594 135.707031 265.027344 138.507812 264.695312 C 142.460938 268.484375 145.265625 261.070312 150.867188 262.390625 C 155.316406 263.378906 164.707031 259.421875 173.933594 265.355469 C 179.867188 269.144531 179.371094 260.90625 184.152344 265.027344 C 192.882812 272.605469 196.507812 259.753906 200.132812 273.429688 C 200.628906 275.242188 200.296875 278.867188 203.59375 278.867188 C 209.855469 279.03125 205.40625 289.90625 208.703125 290.730469 C 255.828125 303.417969 282.851562 304.078125 288.453125 309.351562 C 289.277344 310.175781 290.265625 310.175781 291.253906 310.007812 C 297.1875 308.363281 309.214844 313.304688 310.699219 315.117188 C 316.464844 321.707031 284.003906 311.492188 281.367188 312.976562 C 276.425781 315.613281 278.894531 316.269531 271.8125 313.140625 C 267.199219 311.164062 268.84375 308.195312 264.726562 309.019531 C 259.125 310.175781 255.828125 307.539062 253.355469 311.492188 C 260.9375 315.941406 254.34375 312.8125 270.492188 318.90625 C 280.875 322.863281 282.191406 319.894531 286.804688 324.839844 C 289.605469 327.804688 288.78125 323.851562 297.1875 327.640625 C 305.425781 331.429688 301.636719 328.132812 304.273438 327.804688 C 307.898438 327.3125 310.367188 326.488281 313.992188 328.957031 C 315.96875 330.277344 315.148438 335.714844 317.949219 336.207031 C 318.605469 336.375 336.238281 339.339844 336.898438 339.832031 C 345.136719 344.613281 350.738281 338.1875 358.648438 340.164062 C 378.421875 344.941406 377.597656 348.566406 380.726562 344.449219 C 383.691406 340.492188 390.285156 343.789062 391.109375 344.28125 C 403.464844 352.6875 431.808594 350.542969 480.25 369.65625 C 481.898438 370.316406 483.382812 372.128906 484.039062 375.589844 C 478.933594 381.027344 479.59375 374.105469 475.472656 374.601562 C 472.34375 374.929688 469.375 374.105469 466.574219 371.46875 C 465.585938 370.480469 464.269531 369.65625 463.28125 370.152344 C 458.5 372.292969 447.957031 364.21875 461.960938 379.710938 C 464.761719 382.839844 464.597656 380.203125 467.398438 380.367188 C 499.859375 382.015625 485.855469 385.804688 500.519531 389.925781 C 507.109375 391.738281 505.296875 397.835938 510.238281 397.339844 C 514.359375 397.011719 513.867188 399.8125 518.644531 398.164062 C 520.125 397.667969 526.058594 398.164062 525.070312 395.035156 C 524.90625 394.375 524.574219 393.386719 524.246094 393.054688 C 521.773438 391.242188 519.136719 383.5 525.070312 384.324219 C 533.636719 385.476562 533.472656 393.054688 537.429688 393.386719 C 539.898438 393.550781 541.878906 396.515625 544.183594 397.339844 C 546.160156 398 541.710938 404.261719 544.679688 406.074219 C 547.808594 408.050781 551.105469 409.535156 554.398438 407.0625 C 557.53125 404.753906 556.871094 407.886719 564.78125 407.886719 C 565.441406 407.886719 575.160156 405.414062 577.960938 406.402344 C 590.980469 410.6875 612.402344 405.578125 619.652344 416.289062 C 626.902344 426.835938 712.914062 445.453125 727.90625 451.222656 C 732.355469 453.035156 733.839844 441.335938 741.417969 445.785156 C 746.691406 448.75 752.128906 448.253906 757.402344 450.398438 C 758.554688 450.890625 759.710938 450.066406 760.53125 447.925781 C 763.992188 438.699219 763.992188 447.101562 767.949219 442.652344 C 766.628906 439.027344 761.523438 438.039062 763.003906 430.789062 C 763.335938 428.976562 762.34375 426.503906 763.167969 425.351562 C 770.75 414.972656 767.785156 415.796875 775.691406 416.289062 C 776.515625 416.289062 777.339844 413.324219 777.011719 411.839844 C 775.199219 406.074219 770.089844 398.988281 784.917969 399.976562 C 788.214844 400.140625 786.402344 393.878906 788.710938 391.242188 C 791.347656 388.277344 786.074219 385.3125 789.039062 378.886719 C 791.839844 372.789062 790.523438 368.835938 789.367188 367.84375 C 785.25 364.386719 781.789062 364.386719 778.660156 352.355469 C 777.503906 347.742188 778.660156 343.953125 778.660156 342.46875 C 778.988281 333.738281 782.117188 338.351562 784.261719 330.769531 C 785.910156 325.5 785.742188 321.050781 783.601562 316.269531 C 782.449219 313.800781 781.789062 310.503906 780.472656 308.363281 C 778.328125 304.738281 784.753906 302.101562 786.730469 301.441406 C 789.203125 300.617188 794.972656 295.179688 793.160156 291.71875 C 789.699219 284.964844 788.875 284.46875 789.863281 281.996094 C 790.851562 279.195312 794.148438 279.855469 793.984375 277.878906 C 793.652344 272.933594 783.273438 272.769531 771.078125 265.027344 C 769.265625 263.871094 770.914062 260.90625 771.078125 254.480469 C 771.410156 245.582031 777.835938 252.667969 785.742188 252.996094 C 791.179688 253.164062 792.5 253.328125 792.167969 251.019531 C 791.015625 242.78125 778.660156 245.253906 779.480469 237.015625 C 779.8125 234.046875 781.460938 235.53125 783.765625 235.203125 C 786.402344 234.871094 791.179688 233.390625 789.699219 229.433594 C 787.226562 222.515625 785.578125 224.328125 782.117188 223.667969 C 779.8125 223.339844 779.648438 213.617188 782.449219 210.816406 C 787.390625 205.871094 788.378906 209.003906 790.6875 208.34375 C 796.289062 206.695312 792.664062 176.378906 801.726562 182.308594 C 804.691406 184.121094 806.339844 185.933594 811.285156 181.320312 C 818.367188 174.894531 814.578125 168.960938 819.851562 158.746094 C 823.148438 152.484375 823.640625 147.046875 823.640625 143.257812 C 822.984375 112.445312 826.773438 111.785156 823.972656 100.746094 C 815.898438 70.261719 810.296875 96.132812 793.160156 85.421875 C 788.050781 82.289062 784.261719 82.289062 788.050781 76.195312 C 793.816406 66.472656 785.578125 69.933594 781.789062 64.164062 C 775.855469 55.269531 780.636719 46.699219 777.667969 44.226562 C 772.5625 39.945312 770.253906 40.601562 768.605469 34.175781 C 766.628906 26.597656 739.9375 20.5 735.816406 19.675781 C 730.542969 18.523438 737.300781 33.023438 733.511719 37.636719 C 729.554688 42.414062 728.074219 36.8125 726.589844 43.074219 C 725.929688 45.875 724.941406 51.972656 724.777344 52.464844 C 719.667969 62.519531 720.988281 54.445312 715.386719 62.023438 C 710.441406 68.613281 702.039062 68.777344 698.414062 67.296875 C 689.679688 63.835938 688.03125 63.671875 687.375 65.152344 C 686.714844 66.636719 688.855469 73.886719 685.5625 76.359375 C 684.078125 77.511719 682.265625 77.675781 680.945312 79.652344 C 679.464844 81.960938 677.980469 82.785156 676.332031 82.621094 C 674.355469 82.289062 672.707031 85.09375 670.730469 83.9375 C 667.929688 82.289062 665.128906 83.28125 662.328125 82.949219 C 656.066406 82.289062 655.902344 88.882812 652.769531 84.433594 C 649.476562 79.652344 645.519531 82.125 643.214844 82.125 C 615.367188 82.125 600.042969 64.332031 579.773438 57.410156 C 576.808594 56.421875 576.644531 58.894531 573.679688 56.585938 C 567.417969 51.640625 562.804688 59.550781 556.210938 48.839844 C 555.554688 47.6875 551.761719 42.910156 549.785156 47.195312 C 546.984375 53.125 539.074219 51.808594 536.273438 49.5 C 532.648438 46.371094 532.484375 52.136719 529.847656 52.300781 C 529.023438 52.300781 409.070312 20.335938 428.839844 20.996094 C 439.550781 21.324219 439.714844 21.488281 441.363281 22.476562 C 454.050781 29.5625 466.738281 27.257812 490.300781 35 C 493.597656 35.988281 496.730469 37.636719 500.1875 36.8125 C 513.699219 42.085938 516.335938 43.734375 516.996094 36.320312 C 517.324219 33.351562 516.996094 32.363281 516.007812 32.035156 C 513.699219 31.375 511.394531 28.738281 509.085938 31.539062 C 505.957031 35.328125 500.1875 33.847656 498.210938 27.585938 C 497.058594 23.628906 494.421875 26.433594 493.761719 26.925781 C 487.996094 30.882812 487.832031 23.136719 484.699219 22.640625 C 474.484375 21.160156 473.824219 19.839844 472.507812 23.628906 C 472.34375 23.960938 471.519531 23.960938 471.351562 23.464844 C 470.035156 19.839844 468.222656 19.183594 466.410156 19.015625 C 457.675781 18.359375 458.171875 15.722656 455.863281 17.203125 C 451.25 20.171875 449.601562 16.546875 441.859375 16.214844 C 429.828125 15.886719 427.523438 8.964844 423.898438 13.085938 C 423.570312 13.414062 411.539062 13.578125 411.210938 13.578125 C 406.597656 18.523438 404.289062 10.613281 397.535156 11.109375 C 395.226562 11.273438 392.921875 12.589844 390.613281 12.425781 C 382.210938 12.097656 353.867188 0.0664062 351.066406 5.175781 C 350.574219 6 351.398438 7.976562 352.222656 7.976562 C 353.210938 8.140625 354.035156 7.976562 355.023438 7.976562 C 355.351562 7.976562 355.515625 10.121094 355.023438 9.953125 C 354.363281 9.789062 337.390625 8.472656 342.992188 14.238281 C 339.699219 21.488281 331.292969 12.753906 326.1875 17.039062 C 327.667969 20.828125 324.375 17.535156 341.511719 25.113281 C 355.847656 31.539062 358.648438 23.300781 376.441406 33.351562 C 380.398438 45.050781 380.5625 44.390625 379.902344 45.382812 C 379.574219 46.039062 379.078125 46.699219 378.75 46.535156 C 374.464844 43.734375 369.851562 44.722656 365.566406 41.261719 C 364.910156 40.765625 364.25 40.933594 363.425781 40.933594 C 347.773438 44.0625 300.480469 23.628906 300.480469 34.507812 C 300.480469 39.777344 311.851562 37.964844 319.761719 43.570312 C 324.703125 42.578125 329.480469 47.359375 334.425781 47.027344 C 335.742188 47.027344 337.0625 49.007812 338.378906 50.160156 C 338.710938 50.488281 337.226562 53.125 336.566406 53.125 C 328.660156 53.785156 326.023438 47.523438 321.242188 50.488281 C 319.761719 51.476562 314.652344 55.433594 312.34375 54.9375 C 298.339844 51.640625 290.101562 51.476562 289.9375 51.476562 C 286.804688 50.820312 288.453125 57.574219 285.652344 57.246094 C 276.917969 56.257812 276.425781 55.433594 274.449219 57.574219 C 269.503906 63.339844 270.164062 62.1875 264.5625 61.199219 L 264.394531 61.035156 C 264.394531 49.996094 264.890625 51.3125 256.980469 51.808594 C 253.027344 52.136719 249.070312 53.621094 245.117188 52.632812 C 244.789062 52.464844 245.28125 54.113281 245.28125 53.949219 C 247.589844 52.796875 248.90625 58.234375 251.214844 57.410156 C 252.695312 56.914062 254.507812 58.070312 256.15625 57.574219 C 257.804688 57.082031 259.289062 58.726562 260.769531 60.707031 C 260.277344 61.695312 259.945312 63.671875 259.453125 63.671875 C 255.332031 63.835938 235.726562 58.5625 234.242188 57.902344 C 231.113281 56.421875 227.652344 57.902344 224.355469 57.738281 C 221.058594 57.574219 217.929688 54.609375 214.632812 54.9375 C 207.382812 55.433594 199.804688 49.171875 183.160156 46.203125 C 175.746094 39.945312 169.484375 45.546875 166.027344 42.085938 C 160.421875 36.320312 161.410156 44.558594 155.808594 42.085938 C 152.183594 40.4375 148.722656 39.121094 145.097656 40.601562 C 147.078125 44.226562 148.722656 46.699219 147.570312 49.828125 C 153.503906 53.621094 169.15625 53.125 171.957031 55.925781 C 174.429688 58.234375 174.429688 57.246094 187.117188 57.738281 C 187.445312 60.210938 186.457031 64.332031 189.589844 65.320312 L 189.917969 66.472656 L 190.578125 66.308594 C 190.578125 67.789062 190.90625 70.261719 189.257812 70.261719 C 188.601562 70.261719 178.546875 70.097656 177.890625 69.933594 C 173.109375 65.320312 163.554688 66.308594 163.554688 66.308594 C 161.082031 63.671875 145.757812 58.5625 144.933594 58.398438 C 147.734375 64.164062 153.335938 66.472656 157.292969 67.296875 C 165.859375 69.109375 165.53125 69.769531 165.53125 69.769531 C 164.871094 86.738281 154.65625 66.800781 148.394531 76.523438 C 145.265625 76.195312 142.296875 75.371094 139.167969 75.535156 C 129.773438 76.027344 131.585938 71.25 127.46875 73.394531 C 124.503906 74.875 121.371094 73.886719 118.40625 75.535156 C 119.066406 77.675781 119.722656 78.996094 121.042969 78.996094 C 129.28125 79.160156 126.316406 81.300781 130.105469 81.46875 C 133.894531 81.632812 137.683594 81.632812 141.308594 81.796875 C 142.296875 83.609375 143.453125 83.773438 144.605469 83.773438 C 152.347656 83.445312 166.683594 93.660156 162.402344 97.613281 C 153.171875 105.851562 164.214844 109.3125 146.417969 108.820312 C 144.273438 108.820312 141.96875 106.511719 140.980469 107.5 C 136.035156 112.609375 121.207031 109.808594 118.074219 109.476562 C 120.546875 112.445312 123.183594 108.488281 127.136719 113.925781 C 127.632812 114.585938 128.457031 114.09375 129.28125 114.421875 C 131.09375 115.082031 131.585938 118.375 130.929688 119.363281 C 129.609375 121.507812 128.128906 123.648438 126.808594 125.625 C 146.582031 141.773438 104.730469 128.097656 100.28125 132.875 C 98.136719 135.183594 95.667969 131.722656 93.359375 131.558594 C 92.535156 131.394531 91.546875 132.546875 90.722656 133.042969 C 79.355469 131.0625 71.9375 133.042969 70.785156 135.183594 C 76.71875 136.5 77.542969 139.300781 79.355469 136.335938 C 82.320312 135.675781 85.285156 134.195312 88.085938 138.3125 C 90.722656 145.070312 92.699219 151.496094 96.324219 149.519531 C 101.105469 146.882812 98.632812 154.132812 105.554688 154.132812 C 111.484375 154.132812 112.472656 155.121094 112.96875 156.769531 C 114.121094 160.230469 115.933594 160.558594 117.417969 159.40625 C 119.066406 157.921875 127.46875 154.792969 128.292969 157.59375 C 129.941406 162.699219 132.410156 163.6875 134.882812 165.007812 C 138.179688 166.65625 137.519531 171.761719 136.859375 171.929688 C 133.234375 172.753906 134.390625 171.761719 133.234375 174.566406 C 126.480469 176.378906 121.042969 174.070312 117.910156 174.730469 C 115.769531 175.222656 113.792969 175.882812 111.816406 173.742188 C 111.320312 173.082031 110.332031 173.082031 109.835938 173.574219 C 106.210938 176.542969 105.222656 173.082031 95.335938 171.433594 C 92.207031 170.941406 95.5 177.367188 99.621094 176.046875 C 100.117188 175.882812 122.359375 181.980469 122.03125 183.132812 C 122.691406 183.792969 122.523438 186.429688 123.679688 186.097656 C 128.953125 184.617188 124.996094 183.460938 131.917969 186.59375 C 137.355469 189.066406 128.953125 189.394531 146.085938 189.066406 C 148.066406 190.710938 148.558594 188.898438 153.007812 190.710938 C 153.996094 191.042969 153.996094 196.808594 151.195312 197.304688 C 146.910156 198.128906 142.792969 198.953125 138.507812 198.785156 C 133.566406 198.621094 128.621094 196.644531 123.84375 198.785156 C 123.347656 198.953125 122.855469 198.953125 122.523438 198.621094 C 120.21875 196.644531 117.910156 199.445312 115.605469 198.621094 C 113.460938 197.796875 104.070312 196.972656 102.917969 197.304688 C 100.941406 197.960938 99.292969 194.503906 97.480469 196.480469 C 94.019531 200.105469 94.019531 187.582031 85.449219 202.246094 C 77.375 200.597656 77.871094 198.953125 76.058594 201.09375 C 72.269531 205.210938 70.621094 195.492188 64.855469 204.390625 C 64.195312 205.378906 64.523438 208.015625 65.675781 208.507812 C 67.488281 209.167969 69.136719 201.09375 73.421875 207.847656 C 77.375 213.945312 85.285156 213.121094 91.054688 213.285156 C 96.324219 213.453125 92.371094 213.945312 99.125 215.921875 C 106.046875 218.066406 117.746094 215.757812 122.195312 218.558594 C 123.511719 219.382812 125.160156 219.710938 126.316406 219.054688 C 129.117188 217.242188 136.203125 222.183594 140.816406 221.527344 C 143.617188 221.195312 146.085938 225.644531 148.890625 223.667969 C 150.042969 222.84375 151.359375 226.964844 151.523438 229.433594 C 152.019531 235.53125 139.003906 229.105469 133.894531 231.90625 C 131.257812 233.390625 128.953125 229.597656 126.480469 229.105469 C 121.042969 228.117188 112.636719 228.609375 108.191406 228.609375 C 105.71875 228.609375 106.046875 231.410156 103.90625 232.730469 C 94.183594 238.660156 90.886719 232.234375 85.78125 236.355469 L 73.917969 233.71875 C 70.621094 233.058594 67.324219 234.378906 64.195312 233.222656 C 63.535156 233.058594 62.875 234.214844 62.21875 234.378906 C 60.40625 235.035156 60.734375 238.992188 59.746094 241.132812 C 48.046875 243.109375 46.894531 241.464844 42.9375 243.933594 C 42.609375 244.097656 41.949219 244.097656 41.621094 243.605469 C 38.65625 237.839844 35.03125 242.453125 31.570312 239.980469 C 27.285156 237.015625 22.671875 237.34375 18.386719 237.839844 C 8.171875 239.15625 9.324219 236.027344 2.898438 236.847656 Z M 388.636719 49.007812 C 386 49.007812 386.824219 49.335938 386.164062 47.523438 C 387.316406 46.039062 388.636719 45.875 388.636719 49.007812 Z M 171.132812 217.242188 C 173.605469 215.429688 172.945312 215.921875 173.933594 217.734375 C 173.441406 223.339844 169.484375 218.558594 171.132812 217.242188 Z M 163.554688 203.566406 C 164.707031 202.742188 165.53125 200.105469 164.871094 197.46875 C 165.695312 200.105469 164.871094 202.742188 163.554688 203.566406 Z M 163.554688 203.566406 " fill-opacity="1" fill-rule="evenodd"/><g fill="#f0c398" fill-opacity="1"><g transform="translate(436.033107, 246.78846)"><g><path d="M 9 0.703125 C 8.53125 0.742188 8.003906 0.765625 7.421875 0.765625 C 6.847656 0.765625 6.210938 0.671875 5.515625 0.484375 C 4.492188 0.253906 3.769531 -0.4375 3.34375 -1.59375 C 2.925781 -2.757812 2.742188 -3.785156 2.796875 -4.671875 C 2.796875 -5.328125 2.921875 -5.910156 3.171875 -6.421875 C 3.429688 -6.929688 3.742188 -7.394531 4.109375 -7.8125 C 4.859375 -8.601562 5.835938 -9.113281 7.046875 -9.34375 C 8.535156 -9.625 9.882812 -9.347656 11.09375 -8.515625 C 11.5625 -8.097656 11.96875 -7.582031 12.3125 -6.96875 C 12.664062 -6.363281 12.882812 -5.644531 12.96875 -4.8125 C 13.113281 -4.019531 13.195312 -3.285156 13.21875 -2.609375 C 13.238281 -1.941406 12.992188 -1.351562 12.484375 -0.84375 C 12.160156 -0.507812 11.726562 -0.191406 11.1875 0.109375 C 10.65625 0.410156 9.925781 0.609375 9 0.703125 Z M 9 0.703125 "/></g></g></g></svg>