<?xml version="1.0" encoding="UTF-8" standalone="no"?>
<!DOCTYPE svg PUBLIC "-//W3C//DTD SVG 1.1//EN" "http://www.w3.org/Graphics/SVG/1.1/DTD/svg11.dtd">
<svg width="100%" height="100%" viewBox="0 0 334 334" version="1.1" xmlns="http://www.w3.org/2000/svg" xmlns:xlink="http://www.w3.org/1999/xlink" xml:space="preserve" xmlns:serif="http://www.serif.com/" style="fill-rule:evenodd;clip-rule:evenodd;stroke-linejoin:round;stroke-miterlimit:2;">
    <g transform="matrix(1,0,0,1,-62.376688,-83.039858)">
        <g transform="matrix(4.166667,0,0,4.166667,20.833333,41.666667)">
            <path d="M50,9.93C21.719,9.984 13.434,26.782 11.004,36.742C10.055,40.64 13.348,43.925 17.477,43.925L82.52,43.925C86.649,43.925 89.934,40.64 88.981,36.742C86.539,26.753 78.239,9.875 50.001,9.93L50,9.93ZM50.125,18.559C50.773,18.527 51.387,19.684 51.434,20.801C51.457,21.359 51.359,22.738 50.32,22.77C49.387,22.797 48.957,21.723 48.973,20.867C48.984,20.152 49.277,18.602 50.129,18.559L50.125,18.559ZM36.734,21.41C36.843,21.41 36.945,21.434 37.031,21.484C37.765,21.898 37.289,23.406 36.961,24.047C36.566,24.813 35.675,25.578 34.859,25.133C33.949,24.641 34.519,23.371 34.804,22.887C35.285,22.066 36.14,21.402 36.734,21.406L36.734,21.41ZM63.515,21.41C64.109,21.406 64.964,22.07 65.445,22.891C65.73,23.375 66.296,24.641 65.39,25.137C64.574,25.578 63.683,24.816 63.288,24.051C62.96,23.41 62.484,21.903 63.218,21.488C63.304,21.438 63.406,21.414 63.515,21.414L63.515,21.41ZM43.519,30.355C43.558,30.355 43.601,30.359 43.64,30.371C44.464,30.566 44.449,32.145 44.32,32.848C44.167,33.691 43.535,34.668 42.624,34.469C41.609,34.246 41.785,32.871 41.917,32.332C42.164,31.313 42.91,30.352 43.519,30.356L43.519,30.355ZM57.281,30.355C57.894,30.348 58.64,31.309 58.887,32.332C59.019,32.875 59.191,34.246 58.176,34.469C57.265,34.668 56.633,33.691 56.48,32.848C56.351,32.141 56.336,30.566 57.16,30.371C57.199,30.363 57.238,30.355 57.281,30.355L57.281,30.355ZM28.363,30.531C28.472,30.531 28.574,30.555 28.66,30.602C29.394,31.012 28.929,32.523 28.601,33.164C28.211,33.934 27.324,34.699 26.504,34.258C25.593,33.77 26.156,32.5 26.437,32.012C26.914,31.191 27.765,30.523 28.359,30.527L28.363,30.531ZM72.269,30.531C72.863,30.531 73.714,31.195 74.191,32.016C74.472,32.5 75.035,33.77 74.124,34.262C73.308,34.703 72.417,33.934 72.031,33.168C71.703,32.523 71.238,31.016 71.972,30.605C72.058,30.555 72.16,30.535 72.269,30.535L72.269,30.531ZM14.999,46.355C11.741,47.496 9.702,50.738 9.999,53.64C10.347,57.058 12.605,60.726 17.499,60.926L82.499,60.926C88.64,60.762 89.901,57.465 89.999,53.64C90.077,50.625 90.358,47.515 84.999,46.355L61.589,46.355C57.312,46.355 53.148,47.703 49.726,50.199L47.12,52.097L47.124,52.094C45.808,53.051 44.07,53.254 42.558,52.625L30.468,47.594C28.511,46.777 26.402,46.359 24.269,46.355L14.999,46.355ZM12.796,62.402C11.632,62.406 10.011,65.086 9.999,68.211C9.983,72.894 13.964,75.535 17.499,75.496C31.573,75.344 63.444,75.996 82.499,75.496C87.292,75.371 89.999,71.644 89.999,68.211C89.999,65.922 89.519,63.687 86.436,62.922C82.636,61.98 81.936,65.672 74.998,65.781C71.565,65.836 68.42,63.07 64.998,63.351C60.862,63.691 57.745,68.23 53.596,68.207C49.538,68.187 46.557,63.371 42.498,63.351C38.342,63.328 35.225,68.441 31.072,68.207C27.768,68.023 25.76,63.898 22.498,63.351C20.459,63.008 15.936,64.019 13.139,62.488C13.03,62.43 12.916,62.402 12.795,62.402L12.796,62.402ZM88.015,76.047C88.015,76.047 85.749,77.864 82.503,77.926C62.167,78.336 33.952,78.024 17.503,77.926C15.773,77.914 14.312,77.567 12.503,76.551C11.163,84.368 18.405,90.074 25.003,90.067L75.003,90.067C85.105,90.052 88.374,81.223 88.011,76.047L88.015,76.047Z" style="fill:white;fill-rule:nonzero;"/>
        </g>
    </g>
</svg>
