<?xml version="1.0" encoding="UTF-8" standalone="no"?>
<!DOCTYPE svg PUBLIC "-//W3C//DTD SVG 1.1//EN" "http://www.w3.org/Graphics/SVG/1.1/DTD/svg11.dtd">
<svg width="100%" height="100%" viewBox="0 0 413 418" version="1.1" xmlns="http://www.w3.org/2000/svg" xmlns:xlink="http://www.w3.org/1999/xlink" xml:space="preserve" xmlns:serif="http://www.serif.com/" style="fill-rule:evenodd;clip-rule:evenodd;stroke-linejoin:round;stroke-miterlimit:2;">
    <g transform="matrix(1,0,0,1,0,0.928599)">
        <g transform="matrix(4.166667,0,0,4.166667,0,0)">
            <path d="M98.833,17.794C98.221,11.784 88.84,-4.417 71.929,0.795C61.086,4.136 52.781,9.656 47.549,15.285C29.834,34.35 29.494,54.248 29.711,59.153C24.112,63.514 18.892,67.783 15.186,71.229C13.685,70.337 11.932,69.824 10.059,69.824C4.504,69.824 0,74.327 0,79.882C0,85.438 4.504,89.94 10.059,89.94L10.059,89.941C10.059,95.497 14.563,100 20.119,100C25.674,100 30.177,95.497 30.177,89.941C30.177,86.994 28.908,84.343 26.891,82.503C30.172,78.869 34.391,73.812 38.776,68.399C43.561,68.281 67.539,67.129 83.35,55.917C93.928,48.413 100.273,31.907 98.833,17.794ZM25.067,84.475C25.928,85.634 26.442,87.068 26.442,88.623C26.442,92.479 23.315,95.607 19.458,95.607C15.944,95.607 13.044,93.008 12.556,89.628C13.64,89.35 14.877,88.896 15.787,88.296C12.324,88.317 10,85.962 10,85.962L10,85.96C7,85.158 4.615,82.449 4.615,79.224C4.615,75.367 7.631,72.241 11.488,72.241C12.304,72.241 13.03,72.388 13.759,72.646C16.085,73.051 15.898,73.882 15.898,73.882C16.336,74.249 16.711,74.672 17.047,75.135L18.379,74.223C17.999,73.666 17.562,73.149 17.08,72.681C20.601,69.242 25.692,64.796 31.088,60.264C32.315,60.339 34.178,60.756 35.637,62.414C36.918,63.87 37.495,65.263 37.752,66.341C33.015,72.089 28.416,77.538 25.083,81.196C24.976,81.134 24.864,81.078 24.754,81.021C24.817,82.759 25.067,84.475 25.067,84.475ZM74.472,57.28C65.966,61.352 60.694,62.157 55.326,61.824C49.955,61.494 71.614,59.424 87.77,43.13C87.77,43.13 82.979,53.207 74.472,57.28Z" style="fill:white;fill-rule:nonzero;"/>
        </g>
    </g>
</svg>
