<?xml version="1.0" encoding="UTF-8" standalone="no"?>
<!DOCTYPE svg PUBLIC "-//W3C//DTD SVG 1.1//EN" "http://www.w3.org/Graphics/SVG/1.1/DTD/svg11.dtd">
<svg width="100%" height="100%" viewBox="0 0 269 372" version="1.1" xmlns="http://www.w3.org/2000/svg" xmlns:xlink="http://www.w3.org/1999/xlink" xml:space="preserve" xmlns:serif="http://www.serif.com/" style="fill-rule:evenodd;clip-rule:evenodd;stroke-linejoin:round;stroke-miterlimit:2;">
    <g transform="matrix(1,0,0,1,-95.089759,-64.452659)">
        <g transform="matrix(4.166667,0,0,4.166667,20.833333,41.666667)">
            <path d="M79.875,38.594L78.422,38.594C75.328,38.594 72.641,40.719 71.938,43.719C69.609,53.703 60.672,61.125 49.999,61.125C39.327,61.125 30.39,53.703 28.061,43.734C27.358,40.718 24.671,38.609 21.577,38.609L20.124,38.609C18.733,38.609 17.655,39.843 17.843,41.234L24.312,88.031C24.827,91.765 28.03,94.547 31.796,94.547L68.218,94.547C71.984,94.547 75.187,91.765 75.702,88.031L82.171,41.234C82.343,39.828 81.281,38.593 79.874,38.593L79.875,38.594ZM69.953,84.938C69.859,85.641 69.25,86.157 68.562,86.157C68.5,86.157 68.438,86.157 68.375,86.141C67.609,86.032 67.062,85.329 67.172,84.563L69.406,68.11C69.516,67.344 70.219,66.798 70.984,66.907C71.75,67.016 72.297,67.719 72.188,68.485L69.953,84.938ZM19.406,27.766C19.172,26.875 19.625,25.954 20.5,25.625C22.891,24.735 27.531,23.469 29.75,26.141L34.187,50.391C32.641,48.313 31.484,45.922 30.844,43.282C29.781,38.875 25.969,35.797 21.578,35.797L19.406,27.766ZM25.328,20.579C25.25,20.188 25.469,19.813 25.828,19.688C27.203,19.219 30.578,18.188 33.766,18.11L40.734,56.001C39.234,55.204 37.844,54.22 36.594,53.063L31.5,25.313L31.187,24.938C30.328,23.907 28.672,22.673 25.719,22.657L25.328,20.579ZM33.766,7.767C33.687,7.36 33.922,6.954 34.312,6.813C36.703,6.001 44.781,3.657 48.078,8.11C48.172,8.235 48.235,8.392 48.25,8.548L48.844,14.438C48.094,14.626 47.391,14.845 46.782,15.126L45.61,15.673L48.453,58.251C46.485,58.095 44.594,57.641 42.813,56.954L33.766,7.767ZM47.938,16.673C50.359,15.688 53.672,15.595 56.328,15.735C56.641,15.751 56.859,16.001 56.859,16.313C56.703,21.548 56.078,43.704 55.687,57.485C53.984,58.001 52.187,58.282 50.344,58.313L47.609,17.266C47.578,17.001 47.703,16.766 47.937,16.673L47.938,16.673ZM57.578,56.798C57.984,42.532 58.625,20.079 58.734,16.251C58.75,15.891 58.922,15.548 59.219,15.344C60.937,14.079 67.062,9.907 70.313,12.141C70.625,12.36 70.766,12.751 70.735,13.126L69.078,43.564C67.485,49.689 63.156,54.486 57.578,56.798L57.578,56.798ZM71.187,39.251L72.109,22.251C72.14,21.798 72.531,21.454 72.984,21.501C76.031,21.829 79.218,22.766 80.375,25.173L80.375,25.204L78.671,35.798L78.421,35.798C75.562,35.782 72.953,37.11 71.187,39.251L71.187,39.251Z" style="fill:white;fill-rule:nonzero;"/>
        </g>
    </g>
</svg>
