<?xml version="1.0" encoding="UTF-8" standalone="no"?>
<!DOCTYPE svg PUBLIC "-//W3C//DTD SVG 1.1//EN" "http://www.w3.org/Graphics/SVG/1.1/DTD/svg11.dtd">
<svg width="100%" height="100%" viewBox="0 0 234 165" version="1.1" xmlns="http://www.w3.org/2000/svg" xmlns:xlink="http://www.w3.org/1999/xlink" xml:space="preserve" xmlns:serif="http://www.serif.com/" style="fill-rule:evenodd;clip-rule:evenodd;stroke-linejoin:round;stroke-miterlimit:2;">
    <g transform="matrix(1,0,0,1,-16.666667,-35.639897)">
        <g transform="matrix(4.166667,0,0,4.166667,0,0)">
            <path d="M53.615,30.7C55.408,29.538 57.678,29.379 59.615,30.28C56.315,15.492 42.609,10.404 34.483,8.68C32.068,8.163 29.578,9.265 28.336,11.4C28.321,11.425 28.306,11.449 28.289,11.472C27.931,12.163 28.083,13.015 28.658,13.539C45.8,14.565 51.674,24.947 53.615,30.7Z" style="fill:white;fill-rule:nonzero;"/>
        </g>
        <g transform="matrix(4.166667,0,0,4.166667,0,0)">
            <path d="M34.9,38.416C34.765,37.065 33.608,36.028 32.25,36.041L32.17,36.041C30.706,36.033 29.481,37.2 29.42,38.663C29.411,39.045 29.422,39.426 29.452,39.807L34.974,39.807C34.971,39.356 34.951,38.9 34.9,38.416Z" style="fill:white;fill-rule:nonzero;"/>
        </g>
        <g transform="matrix(4.166667,0,0,4.166667,0,0)">
            <path d="M54.212,32.751C54.397,33.476 54.531,34.212 54.612,34.956C54.614,34.984 54.616,35.013 54.616,35.041C54.616,35.59 54.164,36.041 53.616,36.041C53.614,36.041 53.613,36.041 53.612,36.041L43.875,36.041C42.159,36.037 40.718,37.387 40.612,39.1C40.598,39.346 40.612,39.571 40.612,39.809L60,39.809L60,32.783C58.336,31.388 55.891,31.374 54.212,32.751Z" style="fill:white;fill-rule:nonzero;"/>
        </g>
        <g transform="matrix(4.166667,0,0,4.166667,0,0)">
            <path d="M23.5,37.49C22.725,36.571 21.582,36.041 20.38,36.041L4,36.041L4,39.807L24.4,39.807C24.371,38.955 24.054,38.138 23.5,37.49Z" style="fill:white;fill-rule:nonzero;"/>
        </g>
        <g transform="matrix(4.166667,0,0,4.166667,0,0)">
            <path d="M20.375,34.041C22.165,34.041 23.867,34.832 25.021,36.2C26.129,37.496 26.61,39.217 26.335,40.9C26.335,40.915 26.318,41 26.315,41.012C26.2,41.635 26.017,42.244 25.769,42.828C25.228,44.028 25.618,44.592 26.019,44.949C26.558,45.397 27.349,45.393 27.883,44.94C28.283,44.589 28.683,44.031 28.146,42.845C27.891,42.248 27.703,41.625 27.585,40.987C27.454,40.202 27.4,39.406 27.424,38.61C27.519,36.072 29.634,34.036 32.174,34.038L32.254,34.038C34.64,34.02 36.669,35.848 36.9,38.223C36.986,39.081 37.009,39.944 36.97,40.806L36.97,40.857C36.937,42.17 36.658,43.465 36.146,44.674C35.429,46.29 36.009,47.046 36.508,47.474C37.242,48.098 38.331,48.098 39.065,47.474C39.565,47.045 40.147,46.288 39.442,44.674C38.929,43.46 38.65,42.161 38.618,40.844C38.583,40.224 38.583,39.602 38.618,38.982C38.785,36.218 41.108,34.035 43.877,34.04L52.45,34.04C52.375,33.658 52.269,33.188 52.121,32.652C50.821,27.837 45.943,16.597 28.603,15.532L5.817,34.041L20.375,34.041ZM42.269,29.558L43.309,29.558C43.858,29.558 44.309,30.009 44.309,30.558C44.309,31.107 43.858,31.558 43.309,31.558L42.269,31.558C41.72,31.558 41.269,31.107 41.269,30.558C41.269,30.009 41.72,29.558 42.269,29.558ZM37.262,22.746L38.3,22.746C38.849,22.746 39.3,23.197 39.3,23.746C39.3,24.295 38.849,24.746 38.3,24.746L37.262,24.746C36.713,24.746 36.262,24.295 36.262,23.746C36.262,23.197 36.713,22.746 37.262,22.746ZM31.227,29.558L32.267,29.558C32.816,29.558 33.267,30.009 33.267,30.558C33.267,31.107 32.816,31.558 32.267,31.558L31.227,31.558C30.678,31.558 30.227,31.107 30.227,30.558C30.227,30.009 30.678,29.558 31.227,29.558ZM26.571,23.5L27.611,23.5C28.16,23.5 28.611,23.951 28.611,24.5C28.611,25.049 28.16,25.5 27.611,25.5L26.571,25.5C26.022,25.5 25.571,25.049 25.571,24.5C25.571,23.951 26.022,23.5 26.571,23.5ZM17.858,29.556L18.9,29.556C19.449,29.556 19.9,30.007 19.9,30.556C19.9,31.105 19.449,31.556 18.9,31.556L17.858,31.556C17.309,31.556 16.858,31.105 16.858,30.556C16.858,30.007 17.309,29.556 17.858,29.556Z" style="fill:white;fill-rule:nonzero;"/>
        </g>
    </g>
</svg>
